<?xml version="1.0" encoding="UTF-8"?>
<svg width="143px" height="144px" viewBox="0 0 143 144" version="1.1" xmlns="http://www.w3.org/2000/svg" xmlns:xlink="http://www.w3.org/1999/xlink">
    <!-- Generator: Sketch 54.1 (76490) - https://sketchapp.com -->
    <title>3</title>
    <desc>Created with Sketch.</desc>
    <g id="Page-1" stroke="none" stroke-width="1" fill="none" fill-rule="evenodd">
        <g id="embrk-Website-(Desktop)-Homepage" transform="translate(-32.000000, -30.000000)" fill-rule="nonzero">
            <g id="3" transform="translate(32.000000, 30.000000)">
                <circle id="Oval-Copy" fill="#28464B" cx="71.5" cy="72" r="71.5"></circle>
                <path d="M39.6311301,75.5843373 L27.0328967,75.5843373 C27.1474267,77.121159 27.7487,78.3627797 28.8367347,79.3092369 C29.9247694,80.2556942 31.2991084,80.7289157 32.9597929,80.7289157 C33.8951209,80.7289157 34.7540828,80.564928 35.5367042,80.2369478 C36.3193257,79.9089676 36.9969511,79.4263753 37.569601,78.7891566 L38.7148949,80.0823293 C38.0468034,80.8694818 37.2117016,81.4692081 36.2095644,81.8815261 C35.2074272,82.2938441 34.1050928,82.5 32.9025282,82.5 C31.3563736,82.5 29.9868067,82.1767101 28.7937862,81.5301205 C27.6007657,80.8835309 26.6702237,79.9886269 26.0021322,78.8453815 C25.3340407,77.7021362 25,76.4089764 25,74.9658635 C25,73.5227505 25.3197247,72.2295907 25.9591837,71.0863454 C26.5986427,69.9431 27.4766926,69.0528814 28.5933597,68.4156627 C29.7100269,67.7784439 30.9650656,67.4598394 32.3585136,67.4598394 C33.7519615,67.4598394 35.0022282,67.7784439 36.1093512,68.4156627 C37.2164742,69.0528814 38.0849801,69.9384147 38.7148949,71.0722892 C39.3448097,72.2061636 39.6597624,73.5040088 39.6597624,74.9658635 L39.6311301,75.5843373 Z M32.3585136,69.1746988 C30.9078006,69.1746988 29.690938,69.6291789 28.7078891,70.5381526 C27.7248402,71.4471264 27.166515,72.6325228 27.0328967,74.0943775 L37.7127627,74.0943775 C37.5791444,72.6325228 37.0208192,71.4471264 36.0377703,70.5381526 C35.0547215,69.6291789 33.8283148,69.1746988 32.3585136,69.1746988 Z M62.5942735,67.4598394 C64.484018,67.4598394 65.9681132,67.9939706 67.0466037,69.062249 C68.1250942,70.1305274 68.6643314,71.7048089 68.6643314,73.7851406 L68.6643314,82.3594378 L66.6314347,82.3594378 L66.6314347,73.9819277 C66.6314347,72.4451061 66.2544458,71.2737657 65.5004569,70.4678715 C64.746468,69.6619772 63.6823096,69.2590361 62.30795,69.2590361 C60.7427072,69.2590361 59.5115285,69.7322577 58.6143771,70.6787149 C57.7172257,71.6251721 57.2686567,72.9323879 57.2686567,74.6004016 L57.2686567,82.3594378 L55.23576,82.3594378 L55.23576,73.9819277 C55.23576,72.4451061 54.8587712,71.2737657 54.1047822,70.4678715 C53.3507933,69.6619772 52.2770909,69.2590361 50.883643,69.2590361 C49.3374885,69.2590361 48.1110818,69.7322577 47.2043862,70.6787149 C46.2976907,71.6251721 45.8443497,72.9323879 45.8443497,74.6004016 L45.8443497,82.3594378 L43.8114529,82.3594378 L43.8114529,67.5722892 L45.7584526,67.5722892 L45.7584526,70.2710843 C46.2929258,69.3714814 47.0373594,68.678048 47.9917758,68.1907631 C48.9461922,67.7034782 50.0437546,67.4598394 51.2844959,67.4598394 C52.5443255,67.4598394 53.6371159,67.7222196 54.5628998,68.246988 C55.4886837,68.7717563 56.1806252,69.5495263 56.6387451,70.5803213 C57.1923066,69.6057515 57.9892323,68.8420376 59.0295461,68.2891566 C60.06986,67.7362757 61.2580906,67.4598394 62.5942735,67.4598394 Z M81.9497411,67.4598394 C83.3622773,67.4598394 84.6411761,67.7737586 85.7864758,68.4016064 C86.9317754,69.0294543 87.8289134,69.9149876 88.4779165,71.0582329 C89.1269197,72.2014783 89.4514164,73.5040088 89.4514164,74.9658635 C89.4514164,76.4277182 89.1269197,77.7302486 88.4779165,78.873494 C87.8289134,80.0167393 86.9317754,80.906958 85.7864758,81.5441767 C84.6411761,82.1813954 83.3622773,82.5 81.9497411,82.5 C80.6899115,82.5 79.558945,82.2376198 78.5568078,81.7128514 C77.5546706,81.1880831 76.7482008,80.4290545 76.1373744,79.435743 L76.1373744,82.3594378 L74.1903747,82.3594378 L74.1903747,61.5 L76.2232714,61.5 L76.2232714,70.3835341 C76.8531862,69.4277061 77.659656,68.701475 78.6427048,68.2048193 C79.6257537,67.7081635 80.7280881,67.4598394 81.9497411,67.4598394 Z M81.8065793,80.7289157 C82.8564374,80.7289157 83.8108394,80.4899622 84.6698142,80.0120482 C85.5287889,79.5341342 86.2016424,78.8547567 86.6883948,77.9738956 C87.1751471,77.0930344 87.4185196,76.0903671 87.4185196,74.9658635 C87.4185196,73.8413598 87.1751471,72.8386925 86.6883948,71.9578313 C86.2016424,71.0769702 85.5287889,70.3975928 84.6698142,69.9196787 C83.8108394,69.4417647 82.8564374,69.2028112 81.8065793,69.2028112 C80.737633,69.2028112 79.7784589,69.4417647 78.9290283,69.9196787 C78.0795977,70.3975928 77.4115163,71.0769702 76.9247639,71.9578313 C76.4380116,72.8386925 76.194639,73.8413598 76.194639,74.9658635 C76.194639,76.0903671 76.4380116,77.0930344 76.9247639,77.9738956 C77.4115163,78.8547567 78.0795977,79.5341342 78.9290283,80.0120482 C79.7784589,80.4899622 80.737633,80.7289157 81.8065793,80.7289157 Z M95.5501066,70.4678715 C96.0273148,69.47456 96.7383443,68.7249021 97.6832166,68.2188755 C98.6280888,67.7128489 99.7972313,67.4598394 101.190679,67.4598394 L101.190679,69.3995984 L100.703929,69.3714859 C99.1195981,69.3714859 97.8788754,69.8493928 96.981724,70.8052209 C96.0845726,71.761049 95.6360037,73.1010623 95.6360037,74.8253012 L95.6360037,82.3594378 L93.6031069,82.3594378 L93.6031069,67.5722892 L95.5501066,67.5722892 L95.5501066,70.4678715 Z M110.438928,74.937751 L106.888517,78.1425703 L106.888517,82.3594378 L104.85562,82.3594378 L104.85562,61.5 L106.888517,61.5 L106.888517,75.6405622 L115.879074,67.5722892 L118.398721,67.5722892 L111.956442,73.6164659 L119,82.3594378 L116.508986,82.3594378 L110.438928,74.937751 Z" id="embrk" fill="#FFFFFF"></path>
            </g>
        </g>
    </g>
</svg>